<svg viewBox="0 0 24 24" fill="none" xmlns="http://www.w3.org/2000/svg">
  <path fill-rule="evenodd" clip-rule="evenodd" d="M12 0C5.373 0 0 5.373 0 12C0 17.303 3.438 21.8 8.205 23.385C8.805 23.485 9.025 23.115 9.025 22.793C9.025 22.502 9.015 21.791 9.01 20.963C5.672 21.645 4.967 19.455 4.967 19.455C4.422 18.122 3.633 17.785 3.633 17.785C2.546 17.078 3.725 17.093 3.725 17.093C4.937 17.171 5.554 18.327 5.554 18.327C6.616 20.116 8.347 19.653 9.057 19.353C9.166 18.566 9.486 18.038 9.845 17.731C7.172 17.426 4.381 16.354 4.381 11.636C4.381 10.299 4.872 9.228 5.67 8.403C5.543 8.096 5.105 6.831 5.791 5.145C5.791 5.145 6.75 4.836 8.998 6.449C9.907 6.212 10.885 6.09 11.863 6.084C12.841 6.09 13.819 6.212 14.728 6.449C16.975 4.836 17.934 5.145 17.934 5.145C18.62 6.831 18.182 8.096 18.055 8.403C18.853 9.228 19.344 10.299 19.344 11.636C19.344 16.367 16.548 17.422 13.865 17.722C14.29 18.096 14.661 18.865 14.661 19.972C14.661 21.569 14.647 22.848 14.647 22.793C14.647 23.115 14.867 23.485 15.467 23.385C20.232 21.8 24 17.303 24 12C24 5.373 18.627 0 12 0Z" fill="#FFFFFF"/>
</svg>
